<?xml version="1.0" encoding="UTF-8"?>
<svg width="442px" height="139px" viewBox="0 0 442 139" version="1.1" xmlns="http://www.w3.org/2000/svg" xmlns:xlink="http://www.w3.org/1999/xlink">
    <!-- Generator: Sketch 51.3 (57544) - http://www.bohemiancoding.com/sketch -->
    <title>slack-dark-theme-logo-flat</title>
    <desc>Created with Sketch.</desc>
    <defs></defs>
    <g id="Logo" stroke="none" stroke-width="1" fill="none" fill-rule="evenodd">
        <g id="Logo-Flat" transform="translate(-79.000000, -77.000000)">
            <g id="slack-dark-theme-logo-flat" transform="translate(79.000000, 77.000000)">
                <g id="Group-2" transform="translate(0.000000, 12.000000)" fill-rule="nonzero">
                    <g id="Group">
                        <path d="M79.8,8.1 C77.9,2.4 71.8,-0.7 66.1,1.1 C60.4,3 57.3,9.1 59.1,14.8 L87.2,101.2 C89.1,106.5 94.9,109.5 100.4,107.9 C106.2,106.2 109.7,100.1 107.8,94.5 C107.8,94.3 79.8,8.1 79.8,8.1 Z" id="Shape" fill="#80868C"></path>
                        <path d="M36.3,22.2 C34.4,16.5 28.3,13.4 22.6,15.2 C16.9,17.1 13.8,23.2 15.6,28.9 L43.7,115.3 C45.6,120.6 51.4,123.6 56.9,122 C62.7,120.3 66.2,114.2 64.3,108.6 C64.3,108.4 36.3,22.2 36.3,22.2 Z" id="Shape" fill="#80868C"></path>
                        <path d="M115.2,79.6 C120.9,77.7 124,71.6 122.2,65.9 C120.3,60.2 114.2,57.1 108.5,58.9 L22,87.1 C16.7,89 13.7,94.8 15.3,100.3 C17,106.1 23.1,109.6 28.7,107.7 C28.9,107.7 115.2,79.6 115.2,79.6 Z" id="Shape" fill="#2D333A"></path>
                        <path d="M40,104.1 C45.6,102.3 52.9,99.9 60.7,97.4 C58.9,91.8 56.5,84.5 54,76.7 L33.3,83.4 L40,104.1 Z" id="Shape" fill="#454E59"></path>
                        <path d="M83.6,89.9 C91.4,87.4 98.7,85 104.3,83.2 C102.5,77.6 100.1,70.3 97.6,62.5 L76.9,69.2 L83.6,89.9 Z" id="Shape" fill="#454E59"></path>
                        <path d="M101,36.1 C106.7,34.2 109.8,28.1 108,22.4 C106.1,16.7 100,13.6 94.3,15.4 L7.9,43.5 C2.6,45.4 -0.4,51.2 1.2,56.7 C2.9,62.5 9,66 14.6,64.1 C14.8,64.1 101,36.1 101,36.1 Z" id="Shape" fill="#2D333A"></path>
                        <path d="M25.9,60.5 C31.5,58.7 38.8,56.3 46.6,53.8 C44.1,46 41.7,38.7 39.9,33.1 L19.2,39.8 L25.9,60.5 Z" id="Shape" fill="#454E59"></path>
                        <path d="M69.4,46.4 C77.2,43.9 84.5,41.5 90.1,39.7 C87.6,31.9 85.2,24.6 83.4,19 L62.7,25.7 L69.4,46.4 Z" id="Shape" fill="#454E59"></path>
                    </g>
                </g>
                <path d="M202.8,34.8 C206.6,36.5 206.9,37.7 203.9,43.4 C200.8,49.2 200.1,49.6 196.3,48.1 C191.6,46.1 185.5,44.6 181.6,44.6 C175.2,44.6 171,46.9 171,50.4 C171,61.9 207.6,55.7 207.6,80.1 C207.6,92.4 197,100.6 181.2,100.6 C172.9,100.6 162.6,97.8 155.5,94.2 C152,92.4 151.7,91.4 154.8,85.5 C157.4,80.4 158.3,79.8 162.1,81.4 C168.1,84 175.8,86.1 180.9,86.1 C186.7,86.1 190.6,83.7 190.6,80.3 C190.6,69.2 153.3,74.5 153.3,50.8 C153.3,38.2 163.8,29.8 179.5,29.8 C187.1,29.7 196.4,31.9 202.8,34.8 Z" id="Shape" fill="#2D333A" fill-rule="nonzero"></path>
                <path d="M232.4,5.8 L232.4,97 C232.4,98.4 230.9,99.8 228.9,99.8 L219.3,99.8 C217.2,99.8 215.8,98.3 215.8,97 L215.8,5.8 C215.8,1.3 217.1,0.9 224.1,0.9 C232.1,0.8 232.4,1.4 232.4,5.8 Z" id="Shape" fill="#2D333A" fill-rule="nonzero"></path>
                <path d="M300.6,57 L300.6,96.3 C300.6,98.4 299.1,99.8 297.1,99.8 L287.6,99.8 C285.4,99.8 283.9,98.2 284.1,96 L284.2,91.8 C279.1,97.5 271.7,100.5 264.3,100.5 C250,100.5 240.4,92.2 240.4,79.9 C240.4,66.8 251.2,57.9 267.5,57.9 C273.7,57.9 279.3,59 283.9,60.9 L283.9,56.4 C283.9,49.2 278.2,44.9 268.5,44.9 C264,44.9 258.4,46.7 254,49.3 C250.6,51.2 249.8,51.1 246.1,45.6 C242.5,40.1 242.6,39.1 246.1,36.8 C252.8,32.5 261.8,29.7 270.1,29.7 C288.8,29.7 300.6,39.8 300.6,57 Z M256.4,79.8 C256.4,84.5 260.4,87.6 266.3,87.6 C273.5,87.6 280.1,84.1 283.9,78.2 L283.9,72.1 C280.1,70.6 275.4,69.8 271.3,69.8 C262.3,69.8 256.4,74 256.4,79.8 Z" id="Shape" fill="#2D333A" fill-rule="nonzero"></path>
                <path d="M365.6,34.9 C369.1,36.9 369.2,38 365.4,43.9 C361.8,49.5 361.2,49.8 357.3,47.9 C354.4,46.4 349.7,45.1 345.9,45.1 C333.9,45.1 325.9,53 325.9,65 C325.9,77.4 333.9,85.8 345.9,85.8 C350.1,85.8 355.3,84.2 358.7,82.3 C362.2,80.3 362.9,80.4 366.6,85.8 C369.9,90.8 369.9,92 366.9,94.1 C361.5,97.8 353.1,100.6 345.6,100.6 C323.4,100.6 308.5,86.4 308.5,65 C308.5,43.8 323.4,29.7 345.8,29.7 C352.6,29.7 360.6,32 365.6,34.9 Z" id="Shape" fill="#2D333A" fill-rule="nonzero"></path>
                <path d="M438.2,91.2 C441,94.7 439.9,96 432.9,98.5 C425.8,101.1 424.8,100.9 422.3,97.7 L402.4,71.2 L393.5,79.8 L393.5,97 C393.5,98.4 392,99.8 390,99.8 L380.4,99.8 C378.3,99.8 376.9,98.3 376.9,97 L376.9,5.8 C376.9,1.3 378.2,0.9 385.2,0.9 C393.3,0.9 393.5,1.5 393.5,5.8 L393.5,57.6 L420.7,31.5 C423.7,28.7 425.4,28.9 430.7,32.4 C436.6,36.2 437,37.3 434.2,40 L414,59.8 L438.2,91.2 Z" id="Shape" fill="#2D333A" fill-rule="nonzero"></path>
                <path d="M155.976,138 C155.621332,138 155.322668,137.878668 155.08,137.636 C154.837332,137.393332 154.716,137.094668 154.716,136.74 L154.716,119.744 C154.716,119.389332 154.837332,119.086001 155.08,118.834 C155.322668,118.581999 155.621332,118.456 155.976,118.456 L161.604,118.456 C163.732011,118.456 165.537993,118.927329 167.022,119.87 C168.506007,120.812671 169.62133,122.030659 170.368,123.524 C171.11467,125.017341 171.488,126.585325 171.488,128.228 C171.488,129.870675 171.11467,131.438659 170.368,132.932 C169.62133,134.425341 168.506007,135.643329 167.022,136.586 C165.537993,137.528671 163.732011,138 161.604,138 L155.976,138 Z M161.296,135.62 C162.826674,135.62 164.170661,135.307336 165.328,134.682 C166.485339,134.056664 167.38133,133.188672 168.016,132.078 C168.65067,130.967328 168.968,129.684007 168.968,128.228 C168.968,126.771993 168.65067,125.488672 168.016,124.378 C167.38133,123.267328 166.485339,122.399336 165.328,121.774 C164.170661,121.148664 162.826674,120.836 161.296,120.836 L157.264,120.836 L157.264,135.62 L161.296,135.62 Z M186.618,138.14 C186.244665,138.14 185.941335,138.018668 185.708,137.776 C185.474666,137.533332 185.358,137.234668 185.358,136.88 C185.358,136.730666 185.404667,136.544001 185.498,136.32 L192.638,119.464 C192.787334,119.127998 192.997332,118.852668 193.268,118.638 C193.538668,118.423332 193.869998,118.316 194.262,118.316 L194.542,118.316 C194.934002,118.316 195.265332,118.423332 195.536,118.638 C195.806668,118.852668 196.016666,119.127998 196.166,119.464 L203.306,136.32 C203.399334,136.544001 203.446,136.730666 203.446,136.88 C203.446,137.234668 203.329335,137.533332 203.096,137.776 C202.862666,138.018668 202.559336,138.14 202.186,138.14 C201.924666,138.14 201.686668,138.070001 201.472,137.93 C201.257333,137.789999 201.094001,137.598668 200.982,137.356 L199.162,132.988 L189.642,132.988 L187.822,137.356 C187.71,137.598668 187.546668,137.789999 187.332,137.93 C187.117333,138.070001 186.879335,138.14 186.618,138.14 Z M190.622,130.664 L198.182,130.664 L194.402,121.564 L190.622,130.664 Z M220.172001,138.14 C219.817332,138.14 219.518669,138.018668 219.276001,137.776 C219.033333,137.533332 218.912001,137.234668 218.912001,136.88 L218.912001,119.744 C218.912001,119.389332 219.033333,119.086001 219.276001,118.834 C219.518669,118.581999 219.817332,118.456 220.172001,118.456 L226.696001,118.456 C229.23468,118.456 231.138661,118.978661 232.408001,120.024 C233.67734,121.069339 234.312001,122.441325 234.312001,124.14 C234.312001,125.260006 233.999337,126.281995 233.374001,127.206 C232.748664,128.130005 231.838673,128.797331 230.644001,129.208 C231.988007,129.562668 232.907332,130.397993 233.402001,131.714 C233.89667,133.030007 234.144001,134.32266 234.144001,135.592 L234.144001,136.88 C234.144001,137.234668 234.022669,137.533332 233.780001,137.776 C233.537333,138.018668 233.238669,138.14 232.884001,138.14 C232.491999,138.14 232.179335,138.023335 231.946001,137.79 C231.712666,137.556666 231.596001,137.253335 231.596001,136.88 L231.596001,136.04 C231.596001,135.106662 231.512002,134.243337 231.344001,133.45 C231.176,132.656663 230.774671,131.947336 230.140001,131.322 C229.505331,130.696664 228.544007,130.384 227.256001,130.384 L221.460001,130.384 L221.460001,136.88 C221.460001,137.234668 221.334002,137.533332 221.082001,137.776 C220.83,138.018668 220.526669,138.14 220.172001,138.14 Z M226.528001,127.976 C228.133342,127.976 229.407329,127.65867 230.350001,127.024 C231.292672,126.38933 231.764001,125.493339 231.764001,124.336 C231.764001,123.215994 231.358005,122.357336 230.546001,121.76 C229.733997,121.162664 228.348011,120.864 226.388001,120.864 L221.460001,120.864 L221.460001,127.976 L226.528001,127.976 Z M251.458001,138.14 C251.103333,138.14 250.804669,138.018668 250.562001,137.776 C250.319333,137.533332 250.198001,137.234668 250.198001,136.88 L250.198001,119.604 C250.198001,119.249332 250.319333,118.946001 250.562001,118.694 C250.804669,118.441999 251.103333,118.316 251.458001,118.316 C251.81267,118.316 252.116,118.441999 252.368001,118.694 C252.620002,118.946001 252.746001,119.249332 252.746001,119.604 L252.746001,128.508 L262.322001,118.764 C262.583336,118.465332 262.900666,118.316 263.274001,118.316 C263.591336,118.316 263.866667,118.423332 264.100001,118.638 C264.333336,118.852668 264.450001,119.118665 264.450001,119.436 C264.450001,119.809335 264.347336,120.098666 264.142001,120.304 L257.674001,126.744 L265.094001,136.096 C265.299336,136.357335 265.402001,136.627999 265.402001,136.908 C265.420668,137.244002 265.308669,137.533332 265.066001,137.776 C264.823333,138.018668 264.52467,138.14 264.170001,138.14 C263.740666,138.14 263.404669,137.972002 263.162001,137.636 L255.938001,128.424 L252.746001,131.644 L252.746001,136.88 C252.746001,137.234668 252.620002,137.533332 252.368001,137.776 C252.116,138.018668 251.81267,138.14 251.458001,138.14 Z M304.734002,138.14 C304.379333,138.14 304.08067,138.018668 303.838002,137.776 C303.595334,137.533332 303.474002,137.234668 303.474002,136.88 L303.474002,120.836 L297.762002,120.836 C297.426,120.836 297.146003,120.724001 296.922002,120.5 C296.698001,120.275999 296.586002,119.996002 296.586002,119.66 C296.586002,119.323998 296.698001,119.039334 296.922002,118.806 C297.146003,118.572665 297.426,118.456 297.762002,118.456 L311.706002,118.456 C312.042004,118.456 312.326667,118.572665 312.560002,118.806 C312.793336,119.039334 312.910002,119.323998 312.910002,119.66 C312.910002,119.996002 312.793336,120.275999 312.560002,120.5 C312.326667,120.724001 312.042004,120.836 311.706002,120.836 L306.022002,120.836 L306.022002,136.88 C306.022002,137.234668 305.896003,137.533332 305.644002,137.776 C305.392001,138.018668 305.08867,138.14 304.734002,138.14 Z M328.600002,138.14 C328.245334,138.14 327.94667,138.018668 327.704002,137.776 C327.461334,137.533332 327.340002,137.234668 327.340002,136.88 L327.340002,119.604 C327.340002,119.249332 327.461334,118.946001 327.704002,118.694 C327.94667,118.441999 328.245334,118.316 328.600002,118.316 C328.954671,118.316 329.258001,118.441999 329.510002,118.694 C329.762004,118.946001 329.888002,119.249332 329.888002,119.604 L329.888002,127.052 L340.500002,127.052 L340.500002,119.604 C340.500002,119.249332 340.621334,118.946001 340.864002,118.694 C341.10667,118.441999 341.405334,118.316 341.760002,118.316 C342.114671,118.316 342.418001,118.441999 342.670002,118.694 C342.922004,118.946001 343.048002,119.249332 343.048002,119.604 L343.048002,136.88 C343.048002,137.234668 342.922004,137.533332 342.670002,137.776 C342.418001,138.018668 342.114671,138.14 341.760002,138.14 C341.405334,138.14 341.10667,138.018668 340.864002,137.776 C340.621334,137.533332 340.500002,137.234668 340.500002,136.88 L340.500002,129.432 L329.888002,129.432 L329.888002,136.88 C329.888002,137.234668 329.762004,137.533332 329.510002,137.776 C329.258001,138.018668 328.954671,138.14 328.600002,138.14 Z M361.090003,138 C360.735334,138 360.436671,137.878668 360.194003,137.636 C359.951335,137.393332 359.830003,137.094668 359.830003,136.74 L359.830003,119.744 C359.830003,119.389332 359.951335,119.086001 360.194003,118.834 C360.436671,118.581999 360.735334,118.456 361.090003,118.456 L372.318003,118.456 C372.654004,118.456 372.938668,118.572665 373.172003,118.806 C373.405337,119.039334 373.522003,119.323998 373.522003,119.66 C373.522003,119.996002 373.405337,120.275999 373.172003,120.5 C372.938668,120.724001 372.654004,120.836 372.318003,120.836 L362.378003,120.836 L362.378003,127.024 L371.310003,127.024 C371.646004,127.024 371.930668,127.140665 372.164003,127.374 C372.397337,127.607335 372.514003,127.891998 372.514003,128.228 C372.514003,128.564002 372.397337,128.843999 372.164003,129.068 C371.930668,129.292001 371.646004,129.404 371.310003,129.404 L362.378003,129.404 L362.378003,135.62 L372.318003,135.62 C372.654004,135.62 372.938668,135.736666 373.172003,135.97 C373.405337,136.203335 373.522003,136.487998 373.522003,136.824 C373.522003,137.160002 373.405337,137.439999 373.172003,137.664 C372.938668,137.888001 372.654004,138 372.318003,138 L361.090003,138 Z M390.304003,138.14 C389.949335,138.14 389.650671,138.018668 389.408003,137.776 C389.165335,137.533332 389.044003,137.234668 389.044003,136.88 L389.044003,120.164 C389.044003,119.659997 389.221335,119.226002 389.576003,118.862 C389.930671,118.497998 390.360001,118.316 390.864003,118.316 L391.788003,118.316 C392.161338,118.316 392.502002,118.427999 392.810003,118.652 C393.118005,118.876001 393.346669,119.155998 393.496003,119.492 L399.852003,135.34 L406.208003,119.492 C406.357337,119.155998 406.586002,118.876001 406.894003,118.652 C407.202005,118.427999 407.542668,118.316 407.916003,118.316 L408.840003,118.316 C409.344006,118.316 409.773335,118.497998 410.128003,118.862 C410.482671,119.226002 410.660003,119.659997 410.660003,120.164 L410.660003,136.88 C410.660003,137.234668 410.538671,137.533332 410.296003,137.776 C410.053335,138.018668 409.754671,138.14 409.400003,138.14 C409.045335,138.14 408.742004,138.018668 408.490003,137.776 C408.238002,137.533332 408.112003,137.234668 408.112003,136.88 L408.112003,120.976 L401.644003,136.964 C401.494669,137.318668 401.256671,137.603332 400.930003,137.818 C400.603335,138.032668 400.244005,138.14 399.852003,138.14 C399.460001,138.14 399.100671,138.032668 398.774003,137.818 C398.447335,137.603332 398.209337,137.318668 398.060003,136.964 L391.592003,120.976 L391.592003,136.88 C391.592003,137.234668 391.466004,137.533332 391.214003,137.776 C390.962002,138.018668 390.658671,138.14 390.304003,138.14 Z M428.702003,138 C428.347335,138 428.048671,137.878668 427.806003,137.636 C427.563336,137.393332 427.442003,137.094668 427.442003,136.74 L427.442003,119.744 C427.442003,119.389332 427.563336,119.086001 427.806003,118.834 C428.048671,118.581999 428.347335,118.456 428.702003,118.456 L439.930003,118.456 C440.266005,118.456 440.550669,118.572665 440.784003,118.806 C441.017338,119.039334 441.134003,119.323998 441.134003,119.66 C441.134003,119.996002 441.017338,120.275999 440.784003,120.5 C440.550669,120.724001 440.266005,120.836 439.930003,120.836 L429.990003,120.836 L429.990003,127.024 L438.922003,127.024 C439.258005,127.024 439.542669,127.140665 439.776003,127.374 C440.009338,127.607335 440.126003,127.891998 440.126003,128.228 C440.126003,128.564002 440.009338,128.843999 439.776003,129.068 C439.542669,129.292001 439.258005,129.404 438.922003,129.404 L429.990003,129.404 L429.990003,135.62 L439.930003,135.62 C440.266005,135.62 440.550669,135.736666 440.784003,135.97 C441.017338,136.203335 441.134003,136.487998 441.134003,136.824 C441.134003,137.160002 441.017338,137.439999 440.784003,137.664 C440.550669,137.888001 440.266005,138 439.930003,138 L428.702003,138 Z" id="Dark-Theme" fill="#80868C"></path>
            </g>
        </g>
    </g>
</svg>